<svg xmlns="http://www.w3.org/2000/svg" width="45.011" height="33.695" viewBox="0 0 45.011 33.695"><path d="M7.089,32.633c.833-.81.158-6,.158-6a15.056,15.056,0,0,0,2.982-9.914,7.157,7.157,0,0,0,6.5,2.9,7.258,7.258,0,0,1-4.861-4.175c8.395,3.545,17.273-1.733,22.371.45,1.125,1.812,1.8,6.088,2.9,8.372s.079,9.5.866,7.213a32.318,32.318,0,0,0,1.125-5.806l1.125.36s2.5-7.674,1.373-9.948c1.969,2.453,3.376,2,3.376,2a9.171,9.171,0,0,1-3.995-5.368C39.891,8.912,33.241,3.365,23.35,5,27.356,2.824,30.5,2,33.241,2.633,27.648-.36,19.647,0,12.378,6.752A17.341,17.341,0,0,1,14.494,0S7.562,6.639,7.877,11.1C5.84,8.732,4.2,8.732,4.2,8.732S7.089,10.724,7.4,12.457c-3.061-2.183-3.612-.079-6.358,1.452,3.533-.9,5.413.371,5.413.371s-8.395.54-6.043,6.549S3.792,27.1,3.792,27.1s1.485-.27,1.722.36S6.617,33.095,7.089,32.633Z" transform="translate(-0.001 0)" fill="#343838"/><path d="M25.79,25.225a.765.765,0,1,1-.765-.765A.765.765,0,0,1,25.79,25.225Z" transform="translate(3.039 3.064)" fill="#343838"/><path d="M37.24,21.582a2.183,2.183,0,0,1,0-.27c0-.36-.1-.428-.473-.461s-.923,0-1.384-.079c-.675-.056-1.339-.158-2-.214l-.821-.056-1.44-.1h-.709a9.137,9.137,0,0,0-1.755.1l-1.125.146c-.529.079-1.069.191-1.587.3l-1.969.405a10.352,10.352,0,0,1-2.251.259,9.993,9.993,0,0,1-2.251-.2l-1.947-.428c-.518-.1-1.058-.191-1.587-.259L14.813,20.6a9,9,0,0,0-1.744,0l-.72.068-1.44.135-.81.079c-.675.068-1.328.18-1.992.259l-1.4.113c-.36,0-.428.113-.45.461a2.374,2.374,0,0,0,0,.281v1.125c0,.169,0,.315.225.36a1.058,1.058,0,0,1,.788.911c.09.551.214,1.125.315,1.654a11.05,11.05,0,0,0,.63,2.5,3.23,3.23,0,0,0,1.384,1.7,7.944,7.944,0,0,0,1.429.585,7.393,7.393,0,0,0,2.577.293,6.752,6.752,0,0,0,5.773-3.578,20.693,20.693,0,0,0,1.125-2.8,1.317,1.317,0,0,1,2.509,0A20.255,20.255,0,0,0,24.2,27.524a6.752,6.752,0,0,0,5.851,3.443,7.112,7.112,0,0,0,2.566-.349A7.528,7.528,0,0,0,34.032,30a3.286,3.286,0,0,0,1.35-1.733,11.759,11.759,0,0,0,.664-2.543c.09-.551.191-1.125.281-1.665a1.024,1.024,0,0,1,.765-.911c.18-.068.214-.2.214-.371ZM7.172,22.708a.63.63,0,0,1-.574-.259H7.723a.653.653,0,0,1-.551.3ZM6.6,22.3a.63.63,0,0,1,.563-.27.619.619,0,0,1,.574.248Zm1.485.821v.09h0a1.789,1.789,0,0,1,.45-.979,2.768,2.768,0,0,1,1.125-.686,9.981,9.981,0,0,1,2.251-.5,13.391,13.391,0,0,1,2.622.023,9.509,9.509,0,0,1,3.848.911,1.125,1.125,0,0,1,.191.113h.068l.124.1h0l.281.214h0a1.6,1.6,0,0,1,.349.6,1.722,1.722,0,0,0-.124-.18l-.113-.18-.225-.3-.113-.09h-.056L18.65,22.2l-.158-.1a4.355,4.355,0,0,0-.9-.416c-.169-.068-.338-.113-.518-.169a12.074,12.074,0,0,0-3.59-.439,13.256,13.256,0,0,0-3.455.473,4.355,4.355,0,0,0-1.125.473,2.093,2.093,0,0,0-.821,1.148ZM19.2,25.971a7.1,7.1,0,0,1-.8,1.958,5.626,5.626,0,0,1-4.3,2.6,8.327,8.327,0,0,1-1.834,0,3.747,3.747,0,0,1-1.227-.281c-.158-.079-.326-.124-.484-.2s-.259-.135-.394-.2a2.824,2.824,0,0,1-1.474-1.789,11.489,11.489,0,0,1-.371-4.377,4.647,4.647,0,0,1,.214-.866,1.575,1.575,0,0,1,1-.945,7.72,7.72,0,0,1,2.127-.563,14.337,14.337,0,0,1,3.376-.1,9.486,9.486,0,0,1,3.106.731,3,3,0,0,1,.574.349l.225.191a2.769,2.769,0,0,1,.191.3,1.722,1.722,0,0,1,.394.956,7.483,7.483,0,0,1-.326,2.284Zm15.641,1.744a2.757,2.757,0,0,1-1.429,1.879l-.394.225-.473.2a4.119,4.119,0,0,1-1.215.315,8.327,8.327,0,0,1-1.834,0,5.626,5.626,0,0,1-4.4-2.431,7.258,7.258,0,0,1-.833-1.947,7.134,7.134,0,0,1-.338-2.251,2.071,2.071,0,0,1,.18-.686c.056-.1.124-.191.191-.293a1.666,1.666,0,0,1,.18-.3l.225-.191a2.667,2.667,0,0,1,.563-.36,9.193,9.193,0,0,1,3.128-.8,14.989,14.989,0,0,1,3.376,0,7.641,7.641,0,0,1,2.127.518,1.6,1.6,0,0,1,1.035.923,5.807,5.807,0,0,1,.236.866,11.771,11.771,0,0,1-.326,4.377Zm.529-4.816v-.09a2.138,2.138,0,0,0-.866-1.125,4.04,4.04,0,0,0-1.125-.439,13.245,13.245,0,0,0-3.455-.405,12.1,12.1,0,0,0-3.59.518l-.518.18a4.22,4.22,0,0,0-.878.428l-.169.113-.09.079h-.056l-.113.1a1.474,1.474,0,0,0-.214.3.968.968,0,0,0-.113.18.54.54,0,0,0-.113.191,1.643,1.643,0,0,1,.326-.619h0l.281-.225h0l.135-.1h.056l.191-.124a9.655,9.655,0,0,1,3.826-1,13.38,13.38,0,0,1,2.6,0,9.4,9.4,0,0,1,2.251.428,2.824,2.824,0,0,1,1.182.675,1.834,1.834,0,0,1,.473.956Zm.878-.529a.619.619,0,0,1-.574-.169H36.8a.619.619,0,0,1-.551.214Zm-.574-.405a.63.63,0,0,1,.563-.27.641.641,0,0,1,.574.259Z" transform="translate(0.783 2.555)" fill="#343838" fill-rule="evenodd"/><path d="M16.309,25.224a.754.754,0,0,1-.765.765.776.776,0,0,1-.754-.765.743.743,0,0,1,.765-.754A.754.754,0,0,1,16.309,25.224Z" transform="translate(1.852 3.066)" fill="#343838"/></svg>