<svg xmlns="http://www.w3.org/2000/svg" width="567.294" height="315.565" viewBox="0 0 567.294 315.565"><g transform="translate(0 -0.04)"><path d="M28,343.9a95.675,95.675,0,0,0,3.4,25.354,93.531,93.531,0,0,0,9.556,22.634c0,25.61,16.771,47.743,41.114,58.273a80.811,80.811,0,0,0,32.1,6.543H487.6A101.284,101.284,0,0,0,541.227,441.7a92.237,92.237,0,0,0,12.313-9.145c16.86-14.936,27.313-35.577,27.313-58.375a94.339,94.339,0,0,0,14.44-50.463c0-37.5-21.516-69.744-52.341-83.98a84.851,84.851,0,0,0-12.65-4.662q-2.3-.644-4.641-1.155a84.527,84.527,0,0,0-12.65-1.789q-2.306-.148-4.637-.169h-.853c-1.716,0-3.417.061-5.108.164l-.555-.971q-1.021-1.758-2.093-3.481-1.934-3.139-4.056-6.185-2.222-3.215-4.637-6.328l-.412-.511q-1.369-1.758-2.8-3.476-4.463-5.362-9.422-10.4c-35.758-36.129-91.779-59.388-154.756-59.388-49,0-93.8,14.083-128.107,37.351a84.375,84.375,0,0,0-42.616-11.547c-48.468,0-87.772,41.083-87.772,91.76q.011,4.81.5,9.6C41.978,285.844,27.918,313.956,28,343.9Z" transform="translate(-28 -141.34)" fill="#00dffc" opacity="0.1"/><path d="M244.66,257.52v10.4h9.422Q249.654,262.565,244.66,257.52Z" transform="translate(205.773 -198.113)" fill="#00dffc" opacity="0.2"/><rect width="12.65" height="13.04" transform="translate(433.141 56.769)" fill="#00dffc" opacity="0.2"/><rect width="12.65" height="13.04" transform="translate(415.855 56.769)" fill="#00dffc" opacity="0.2"/><rect width="12.65" height="13.04" transform="translate(398.563 56.769)" fill="#00dffc" opacity="0.2"/><rect width="12.65" height="13.04" transform="translate(381.277 56.769)" fill="#00dffc" opacity="0.2"/><rect width="12.65" height="13.04" transform="translate(363.985 56.769)" fill="#00dffc" opacity="0.2"/><rect width="12.65" height="13.04" transform="translate(346.694 56.769)" fill="#00dffc"/><rect width="12.65" height="13.04" transform="translate(329.407 56.769)" fill="#00dffc" opacity="0.2"/><rect width="12.65" height="13.04" transform="translate(312.115 56.769)" fill="#00dffc" opacity="0.2"/><rect width="12.65" height="13.04" transform="translate(294.829 56.769)" fill="#00dffc" opacity="0.2"/><rect width="12.65" height="13.04" transform="translate(277.537 56.769)" fill="#00dffc"/><rect width="12.65" height="13.04" transform="translate(260.246 56.769)" fill="#00dffc" opacity="0.2"/><rect width="12.65" height="13.04" transform="translate(242.959 56.769)" fill="#00dffc" opacity="0.2"/><rect width="12.65" height="13.04" transform="translate(225.668 56.769)" fill="#00dffc" opacity="0.2"/><rect width="12.65" height="13.04" transform="translate(208.376 56.769)" fill="#00dffc" opacity="0.2"/><rect width="12.65" height="13.04" transform="translate(191.09 56.769)" fill="#00dffc" opacity="0.2"/><rect width="12.65" height="13.04" transform="translate(173.798 56.769)" fill="#00dffc" opacity="0.2"/><rect width="12.65" height="13.04" transform="translate(156.511 56.769)" fill="#00dffc"/><rect width="12.65" height="13.04" transform="translate(139.22 56.769)" fill="#00dffc"/><rect width="12.65" height="13.04" transform="translate(121.928 56.769)" fill="#00dffc" opacity="0.2"/><rect width="12.65" height="13.04" transform="translate(104.642 56.769)" fill="#00dffc" opacity="0.2"/><rect width="12.65" height="13.04" transform="translate(87.35 56.769)" fill="#00dffc"/><rect width="12.65" height="13.04" transform="translate(70.064 56.769)" fill="#00dffc"/><path d="M220.62,298.08v6.185h4.056Q222.742,301.106,220.62,298.08Z" transform="translate(247.099 -217.94)" fill="#00dffc"/><rect width="12.65" height="13.04" transform="translate(450.433 73.285)" fill="#00dffc" opacity="0.2"/><rect width="12.65" height="13.04" transform="translate(433.141 73.285)" fill="#00dffc"/><rect width="12.65" height="13.04" transform="translate(415.855 73.285)" fill="#00dffc" opacity="0.2"/><rect width="12.65" height="13.04" transform="translate(398.563 73.285)" fill="#00dffc" opacity="0.7"/><rect width="12.65" height="13.04" transform="translate(381.277 73.285)" fill="#00dffc" opacity="0.2"/><rect width="12.65" height="13.04" transform="translate(363.985 73.285)" fill="#00dffc" opacity="0.4"/><rect width="12.65" height="13.04" transform="translate(346.694 73.285)" fill="#00dffc"/><rect width="12.65" height="13.04" transform="translate(329.407 73.285)" fill="#00dffc" opacity="0.4"/><rect width="12.65" height="13.04" transform="translate(312.115 73.285)" fill="#00dffc" opacity="0.2"/><rect width="12.65" height="13.04" transform="translate(294.829 73.285)" fill="#00dffc" opacity="0.4"/><rect width="12.65" height="13.04" transform="translate(277.537 73.285)" fill="#00dffc"/><rect width="12.65" height="13.04" transform="translate(260.246 73.285)" fill="#00dffc" opacity="0.4"/><rect width="12.65" height="13.04" transform="translate(242.959 73.285)" fill="#00dffc" opacity="0.4"/><rect width="12.65" height="13.04" transform="translate(225.668 73.285)" fill="#00dffc" opacity="0.2"/><rect width="12.65" height="13.04" transform="translate(208.376 73.285)" fill="#00dffc" opacity="0.4"/><rect width="12.65" height="13.04" transform="translate(191.09 73.285)" fill="#00dffc" opacity="0.4"/><rect width="12.65" height="13.04" transform="translate(173.798 73.285)" fill="#00dffc" opacity="0.2"/><rect width="12.65" height="13.04" transform="translate(156.511 73.285)" fill="#00dffc" opacity="0.2"/><rect width="12.65" height="13.04" transform="translate(139.22 73.285)" fill="#00dffc" opacity="0.4"/><rect width="12.65" height="13.04" transform="translate(121.928 73.285)" fill="#00dffc" opacity="0.2"/><rect width="12.65" height="13.04" transform="translate(104.642 73.285)" fill="#00dffc"/><rect width="12.65" height="13.04" transform="translate(87.35 73.285)" fill="#00dffc"/><rect width="12.65" height="13.04" transform="translate(70.064 73.285)" fill="#00dffc"/><path d="M133.55,324.67v9.114H146.2v-4.452a84.857,84.857,0,0,0-12.65-4.662Z" transform="translate(368.753 -230.938)" fill="#00dffc" opacity="0.2"/><path d="M140.42,177.57v12.058h12.65V179.359Z" transform="translate(344.591 -86.782)" fill="#00dffc" opacity="0.2"/><rect width="12.65" height="13.04" transform="translate(467.724 89.806)" fill="#00dffc"/><rect width="12.65" height="13.04" transform="translate(450.433 89.806)" fill="#00dffc" opacity="0.7"/><rect width="12.65" height="13.04" transform="translate(433.141 89.806)" fill="#00dffc"/><rect width="12.65" height="13.04" transform="translate(415.855 89.806)" fill="#00dffc" opacity="0.7"/><rect width="12.65" height="13.04" transform="translate(398.563 89.806)" fill="#00dffc" opacity="0.7"/><rect width="12.65" height="13.04" transform="translate(381.277 89.806)" fill="#00dffc" opacity="0.2"/><rect width="12.65" height="13.04" transform="translate(363.985 89.806)" fill="#00dffc" opacity="0.4"/><rect width="12.65" height="13.04" transform="translate(346.694 89.806)" fill="#00dffc" opacity="0.4"/><rect width="12.65" height="13.04" transform="translate(329.407 89.806)" fill="#00dffc"/><rect width="12.65" height="13.04" transform="translate(312.115 89.806)" fill="#00dffc" opacity="0.2"/><rect width="12.65" height="13.04" transform="translate(294.829 89.806)" fill="#00dffc" opacity="0.4"/><rect width="12.65" height="13.04" transform="translate(277.537 89.806)" fill="#00dffc"/><rect width="12.65" height="13.04" transform="translate(260.246 89.806)" fill="#00dffc" opacity="0.2"/><rect width="12.65" height="13.04" transform="translate(242.959 89.806)" fill="#00dffc" opacity="0.4"/><rect width="12.65" height="13.04" transform="translate(225.668 89.806)" fill="#00dffc" opacity="0.2"/><rect width="12.65" height="13.04" transform="translate(208.376 89.806)" fill="#00dffc"/><rect width="12.65" height="13.04" transform="translate(191.09 89.806)" fill="#00dffc" opacity="0.2"/><rect width="12.65" height="13.04" transform="translate(173.798 89.806)" fill="#00dffc" opacity="0.7"/><rect width="12.65" height="13.04" transform="translate(156.511 89.806)" fill="#00dffc" opacity="0.7"/><rect width="12.65" height="13.04" transform="translate(139.22 89.806)" fill="#00dffc" opacity="0.4"/><rect width="12.65" height="13.04" transform="translate(121.928 89.806)" fill="#00dffc" opacity="0.2"/><rect width="12.65" height="13.04" transform="translate(104.642 89.806)" fill="#00dffc"/><rect width="12.65" height="13.04" transform="translate(87.35 89.806)" fill="#00dffc"/><rect width="12.65" height="13.04" transform="translate(70.064 89.806)" fill="#00dffc"/><rect width="12.65" height="13.04" transform="translate(502.303 106.322)" fill="#00dffc" opacity="0.2"/><rect width="12.65" height="13.04" transform="translate(485.011 106.322)" fill="#00dffc" opacity="0.2"/><rect width="12.65" height="13.04" transform="translate(467.724 106.322)" fill="#00dffc" opacity="0.2"/><rect width="12.65" height="13.04" transform="translate(450.433 106.322)" fill="#00dffc" opacity="0.2"/><rect width="12.65" height="13.04" transform="translate(433.141 106.322)" fill="#00dffc"/><rect width="12.65" height="13.04" transform="translate(415.855 106.322)" fill="#00dffc" opacity="0.7"/><rect width="12.65" height="13.04" transform="translate(398.563 106.322)" fill="#00dffc" opacity="0.7"/><rect width="12.65" height="13.04" transform="translate(381.277 106.322)" fill="#00dffc" opacity="0.2"/><rect width="12.65" height="13.04" transform="translate(363.985 106.322)" fill="#00dffc" opacity="0.2"/><rect width="12.65" height="13.04" transform="translate(346.694 106.322)" fill="#00dffc" opacity="0.4"/><rect width="12.65" height="13.04" transform="translate(329.407 106.322)" fill="#00dffc" opacity="0.4"/><rect width="12.65" height="13.04" transform="translate(312.115 106.322)" fill="#00dffc"/><rect width="12.65" height="13.04" transform="translate(294.829 106.322)" fill="#00dffc" opacity="0.2"/><rect width="12.65" height="13.04" transform="translate(277.537 106.322)" fill="#00dffc" opacity="0.4"/><rect width="12.65" height="13.04" transform="translate(260.246 106.322)" fill="#00dffc" opacity="0.4"/><rect width="12.65" height="13.04" transform="translate(242.959 106.322)" fill="#00dffc" opacity="0.4"/><rect width="12.65" height="13.04" transform="translate(225.668 106.322)" fill="#00dffc" opacity="0.4"/><rect width="12.65" height="13.04" transform="translate(208.376 106.322)" fill="#00dffc" opacity="0.2"/><rect width="12.65" height="13.04" transform="translate(191.09 106.322)" fill="#00dffc" opacity="0.2"/><rect width="12.65" height="13.04" transform="translate(173.798 106.322)" fill="#00dffc" opacity="0.2"/><rect width="12.65" height="13.04" transform="translate(156.511 106.322)" fill="#00dffc" opacity="0.2"/><rect width="12.65" height="13.04" transform="translate(139.22 106.322)" fill="#00dffc" opacity="0.7"/><rect width="12.65" height="13.04" transform="translate(121.928 106.322)" fill="#00dffc" opacity="0.7"/><rect width="12.65" height="13.04" transform="translate(104.642 106.322)" fill="#00dffc" opacity="0.4"/><rect width="12.65" height="13.04" transform="translate(87.35 106.322)" fill="#00dffc" opacity="0.2"/><rect width="12.65" height="13.04" transform="translate(70.064 106.322)" fill="#00dffc"/><rect width="12.65" height="13.04" transform="translate(502.303 122.843)" fill="#00dffc" opacity="0.2"/><rect width="12.65" height="13.04" transform="translate(485.011 122.843)" fill="#00dffc" opacity="0.2"/><rect width="12.65" height="13.04" transform="translate(467.724 122.843)" fill="#00dffc" opacity="0.4"/><rect width="12.65" height="13.04" transform="translate(450.433 122.843)" fill="#00dffc" opacity="0.2"/><rect width="12.65" height="13.04" transform="translate(433.141 122.843)" fill="#00dffc" opacity="0.2"/><rect width="12.65" height="13.04" transform="translate(415.855 122.843)" fill="#00dffc" opacity="0.7"/><rect width="12.65" height="13.04" transform="translate(398.563 122.843)" fill="#00dffc" opacity="0.7"/><rect width="12.65" height="13.04" transform="translate(381.277 122.843)" fill="#00dffc" opacity="0.2"/><rect width="12.65" height="13.04" transform="translate(363.985 122.843)" fill="#00dffc" opacity="0.2"/><rect width="12.65" height="13.04" transform="translate(346.694 122.843)" fill="#00dffc" opacity="0.4"/><rect width="12.65" height="13.04" transform="translate(329.407 122.843)" fill="#00dffc"/><rect width="12.65" height="13.04" transform="translate(312.115 122.843)" fill="#00dffc" opacity="0.2"/><rect width="12.65" height="13.04" transform="translate(294.829 122.843)" fill="#00dffc"/><rect width="12.65" height="13.04" transform="translate(277.537 122.843)" fill="#00dffc"/><rect width="12.65" height="13.04" transform="translate(260.246 122.843)" fill="#00dffc"/><rect width="12.65" height="13.04" transform="translate(242.959 122.843)" fill="#00dffc" opacity="0.2"/><rect width="12.65" height="13.04" transform="translate(225.668 122.843)" fill="#00dffc"/><rect width="12.65" height="13.04" transform="translate(208.376 122.843)" fill="#00dffc" opacity="0.2"/><rect width="12.65" height="13.04" transform="translate(191.09 122.843)" fill="#00dffc" opacity="0.2"/><rect width="12.65" height="13.04" transform="translate(173.798 122.843)" fill="#00dffc" opacity="0.2"/><rect width="12.65" height="13.04" transform="translate(156.511 122.843)" fill="#00dffc" opacity="0.2"/><rect width="12.65" height="13.04" transform="translate(139.22 122.843)" fill="#00dffc" opacity="0.2"/><rect width="12.65" height="13.04" transform="translate(121.928 122.843)" fill="#00dffc" opacity="0.7"/><rect width="12.65" height="13.04" transform="translate(104.642 122.843)" fill="#00dffc" opacity="0.2"/><rect width="12.65" height="13.04" transform="translate(87.35 122.843)" fill="#00dffc" opacity="0.2"/><rect width="12.65" height="13.04" transform="translate(70.064 122.843)" fill="#00dffc"/><rect width="12.65" height="13.04" transform="translate(502.303 139.359)" fill="#00dffc" opacity="0.2"/><rect width="12.65" height="13.04" transform="translate(485.011 139.359)" fill="#00dffc" opacity="0.2"/><rect width="12.65" height="13.04" transform="translate(467.724 139.359)" fill="#00dffc" opacity="0.2"/><rect width="12.65" height="13.04" transform="translate(450.433 139.359)" fill="#00dffc" opacity="0.4"/><rect width="12.65" height="13.04" transform="translate(433.141 139.359)" fill="#00dffc" opacity="0.2"/><rect width="12.65" height="13.04" transform="translate(415.855 139.359)" fill="#00dffc" opacity="0.2"/><rect width="12.65" height="13.04" transform="translate(398.563 139.359)" fill="#00dffc" opacity="0.7"/><rect width="12.65" height="13.04" transform="translate(381.277 139.359)" fill="#00dffc" opacity="0.2"/><rect width="12.65" height="13.04" transform="translate(363.985 139.359)" fill="#00dffc" opacity="0.2"/><rect width="12.65" height="13.04" transform="translate(346.694 139.359)" fill="#00dffc" opacity="0.2"/><rect width="12.65" height="13.04" transform="translate(329.407 139.359)" fill="#00dffc"/><rect width="12.65" height="13.04" transform="translate(312.115 139.359)" fill="#00dffc" opacity="0.2"/><rect width="12.65" height="13.04" transform="translate(294.829 139.359)" fill="#00dffc"/><rect width="12.65" height="13.04" transform="translate(277.537 139.359)" fill="#00dffc"/><rect width="12.65" height="13.04" transform="translate(260.246 139.359)" fill="#00dffc" opacity="0.2"/><rect width="12.65" height="13.04" transform="translate(242.959 139.359)" fill="#00dffc" opacity="0.2"/><rect width="12.65" height="13.04" transform="translate(225.668 139.359)" fill="#00dffc" opacity="0.2"/><rect width="12.65" height="13.04" transform="translate(208.376 139.359)" fill="#00dffc" opacity="0.2"/><rect width="12.65" height="13.04" transform="translate(191.09 139.359)" fill="#00dffc" opacity="0.2"/><rect width="12.65" height="13.04" transform="translate(173.798 139.359)" fill="#00dffc" opacity="0.2"/><rect width="12.65" height="13.04" transform="translate(156.511 139.359)" fill="#00dffc" opacity="0.2"/><rect width="12.65" height="13.04" transform="translate(139.22 139.359)" fill="#00dffc" opacity="0.2"/><rect width="12.65" height="13.04" transform="translate(121.928 139.359)" fill="#00dffc" opacity="0.2"/><rect width="12.65" height="13.04" transform="translate(104.642 139.359)" fill="#00dffc" opacity="0.2"/><rect width="12.65" height="13.04" transform="translate(87.35 139.359)" fill="#00dffc" opacity="0.4"/><rect width="12.65" height="13.04" transform="translate(70.064 139.359)" fill="#00dffc"/><rect width="12.65" height="13.04" transform="translate(502.303 155.88)" fill="#00dffc" opacity="0.7"/><rect width="12.65" height="13.04" transform="translate(485.011 155.88)" fill="#00dffc" opacity="0.7"/><rect width="12.65" height="13.04" transform="translate(467.724 155.88)" fill="#00dffc" opacity="0.7"/><rect width="12.65" height="13.04" transform="translate(450.433 155.88)" fill="#00dffc" opacity="0.7"/><rect width="12.65" height="13.04" transform="translate(433.141 155.88)" fill="#00dffc" opacity="0.7"/><rect width="12.65" height="13.04" transform="translate(415.855 155.88)" fill="#00dffc" opacity="0.2"/><rect width="12.65" height="13.04" transform="translate(398.563 155.88)" fill="#00dffc" opacity="0.2"/><rect width="12.65" height="13.04" transform="translate(381.277 155.88)" fill="#00dffc" opacity="0.2"/><rect width="12.65" height="13.04" transform="translate(363.985 155.88)" fill="#00dffc" opacity="0.2"/><rect width="12.65" height="13.04" transform="translate(346.694 155.88)" fill="#00dffc" opacity="0.2"/><rect width="12.65" height="13.04" transform="translate(329.407 155.88)" fill="#00dffc" opacity="0.2"/><rect width="12.65" height="13.04" transform="translate(312.115 155.88)" fill="#00dffc"/><rect width="12.65" height="13.04" transform="translate(294.829 155.88)" fill="#00dffc" opacity="0.2"/><rect width="12.65" height="13.04" transform="translate(277.537 155.88)" fill="#00dffc" opacity="0.2"/><rect width="12.65" height="13.04" transform="translate(260.246 155.88)" fill="#00dffc" opacity="0.2"/><rect width="12.65" height="13.04" transform="translate(242.959 155.88)" fill="#00dffc"/><rect width="12.65" height="13.04" transform="translate(225.668 155.88)" fill="#00dffc" opacity="0.2"/><rect width="12.65" height="13.04" transform="translate(208.376 155.88)" fill="#00dffc" opacity="0.2"/><rect width="12.65" height="13.04" transform="translate(191.09 155.88)" fill="#00dffc" opacity="0.2"/><rect width="12.65" height="13.04" transform="translate(173.798 155.88)" fill="#00dffc" opacity="0.2"/><rect width="12.65" height="13.04" transform="translate(156.511 155.88)" fill="#00dffc" opacity="0.2"/><rect width="12.65" height="13.04" transform="translate(139.22 155.88)" fill="#00dffc" opacity="0.2"/><rect width="12.65" height="13.04" transform="translate(121.928 155.88)" fill="#00dffc" opacity="0.2"/><rect width="12.65" height="13.04" transform="translate(104.642 155.88)" fill="#00dffc" opacity="0.2"/><rect width="12.65" height="13.04" transform="translate(87.35 155.88)" fill="#00dffc" opacity="0.2"/><rect width="12.65" height="13.04" transform="translate(70.064 155.88)" fill="#00dffc"/><ellipse cx="17.292" cy="17.824" rx="17.292" ry="17.824" transform="translate(185.764 168.204)" fill="#767d9f"/><path d="M810.655,447.818q-2.588,11.644-4.394,23.463c-.362,2.341-.684,4.81.139,7.023.689,1.845,2.093,3.287,3.193,4.9s1.934,3.686,1.265,5.536-2.623,2.863-4.488,3.384c-5.336,1.482-11.023.4-16.334-1.2a21.259,21.259,0,0,1-12.64-8.547c-7.741-9.676-12.809-21.29-17.579-32.832a19.113,19.113,0,0,0,16.419-6.819c1.954-2.367,3.387-5.664,2.286-8.557,3.228,1.825,7.061,1.948,10.538,3.195a36.985,36.985,0,0,1,6.2,3.144q3.56,2.121,7.081,4.324C805.022,446.5,807.536,447.982,810.655,447.818Z" transform="translate(-606.702 -284.465)" fill="#f5cec0"/><path d="M723.324,471.317c3.03,6.078,6.972,11.92,12.6,15.54s13.206,4.6,18.844,1.022c2.777-1.748,4.879-4.406,7.3-6.645s5.455-4.156,8.713-3.864c3.59.322,6.4,3.21,8.807,5.976a70.906,70.906,0,0,1,9.759,13.556c4.959,9.559,6.134,20.733,5.916,31.57s-1.741,21.617-1.775,32.454c-.05,13.331,2.142,26.555,4.359,39.687-20.381-2.586-40.787,3.067-61.212,5.209-13.072,1.385-26.242,1.355-39.383,1.319-2.311,0-4.77-.061-6.694-1.38a9.239,9.239,0,0,1-2.772-3.394,33.252,33.252,0,0,1-3.05-11.276c-1.284-9.825-1.324-19.772-1.359-29.689-.089-24.025-.174-48.137,2.787-71.973.729-5.863,1.661-11.757,3.843-17.242s5.742-10.53,10.721-13.469c3.2-1.891,10.612-5.183,14.381-3.277C719.342,457.567,721.3,467.249,723.324,471.317Z" transform="translate(-555.536 -294.582)" fill="#767d9f"/><path d="M905.314,535.14c.769-14.824,3.9-30.645-2.762-43.8-1.636-3.231,4.235-7.264,2.42-10.392a47.867,47.867,0,0,1-4.989-12.232,9.5,9.5,0,0,1-.322-4.524c.66-2.7,3.253-4.314,5.455-5.96,2.43-1.82,3.679-7.366,4.463-10.366s-6.233.613-9.055-.455c-3.918-1.477-8.9-.547-12.8.951a20.776,20.776,0,0,1-6.878.961,87.916,87.916,0,0,1-13.533-.332,32.683,32.683,0,0,0-6.055-.537c-5.162.3-9.65,3.941-12.7,8.245s-5,9.319-7.5,13.98c-2.088,3.885-4.577,7.555-6.357,11.6a72.974,72.974,0,0,0-3.56,11.246l-2.544,9.809a13.45,13.45,0,0,0-.625,4.35,12.6,12.6,0,0,0,1.488,4.427,84.192,84.192,0,0,0,9.258,14.563c5.351,6.763,11.847,12.861,15.025,20.958a54.237,54.237,0,0,1,2.559,9.85,372.41,372.41,0,0,1,5.405,40.459,84.6,84.6,0,0,1,18.11-6.241,85.624,85.624,0,0,1,9.422-1.534c2.772-.3,6.347.266,8.985-.511,4.413-1.293,4.9-8.986,5.569-13.014a122.444,122.444,0,0,0,1.324-19.424C905.155,549.841,904.932,542.486,905.314,535.14Z" transform="translate(-739.034 -290.562)" fill="#4c4981"/><path d="M563.813,558.941c-2.088,12.268-4.389,24.572-8.926,36.1.114.112.228.215.342.317.4.353.818.685,1.255,1.022a16.761,16.761,0,0,1,2.975,2.321,4.111,4.111,0,0,1,.744,1.252,2.88,2.88,0,0,1,0,2.285c2.365,1.078,5.113.746,7.766.644,2.286-.087,4.5,0,6.337,1.293,2.549,1.81,3.317,5.285,3.729,8.445q.228,1.728.392,3.461.159,1.61.258,3.231a99.368,99.368,0,0,1,.094,10.735q-.04.981-.1,1.963c8.1-.2,15.486-4.555,22.473-8.787a12.48,12.48,0,0,0,4.279-3.578,8.277,8.277,0,0,0,1.146-5.26,5.968,5.968,0,0,0-.079-.777,21.78,21.78,0,0,0-1.135-4.437,55.2,55.2,0,0,0-9.516-16.69c-1.775-2.137-3.774-4.227-4.6-6.911-.362-1.171-.5-2.413-.863-3.578-1.646-5.05-7.587-7.437-9.62-12.34a38.194,38.194,0,0,0-1.339-3.578,8.929,8.929,0,0,0-2.108-2.428c-.362-.312-.739-.613-1.111-.915q-5.227-4.222-10.071-8.92-.9-.874-1.785-1.769a31.319,31.319,0,0,1-.531,6.9Z" transform="translate(-300.612 -342.083)" fill="#4c4981"/><path d="M643.841,483.908c.714.777,1.488,1.508,2.246,2.234l.2.189.8.767a19.784,19.784,0,0,1,3.744,4.493l.084.143c2.529,4.667,1.592,10.413.888,15.713a137.736,137.736,0,0,0-1.175,19.936c.129,9.2,1.18,18.341,1.2,27.531q0,3.128-.134,6.252c-.144,3.389-.392,6.773-.689,10.157-.322,3.711-.709,7.417-1.071,11.123-.288,2.868-.56,5.73-.788,8.593-.114,1.482-.223,2.96-.312,4.442-.1,1.738-.188,3.481-.238,5.219h0c-.035,1.1-.055,2.2-.055,3.307v1.876q0,1.794.094,3.578.1,2.3.3,4.6c.154,1.672.426,3.5,1.567,4.672.069.072.144.138.218.2l1.607-.2a160.09,160.09,0,0,1,33.373-.613c-.243-1.728-.466-3.45-.684-5.183-.1-.818-.2-1.641-.293-2.464q-.164-1.411-.312-2.822-.171-1.534-.317-3.067-.387-3.951-.679-7.908-.431-5.771-.655-11.563-.109-2.765-.169-5.536-.084-3.435-.079-6.875,0-3.343.055-6.7c0-.736.03-1.472.089-2.2a14.357,14.357,0,0,1,.263-1.958,26.017,26.017,0,0,1,1.488-4.335c.109-.266.213-.511.317-.792.06-.138.114-.281.169-.419-2.856-2.622-4.889-6.134-6.843-9.589-3.169-5.567-6.412-11.379-6.942-17.809s2.569-13.653,8.529-15.616a40.3,40.3,0,0,1,5.008-.956c1.577-.286,4.865-.935,6.69-2.1q1.488,1.574,2.975,3.093a11.605,11.605,0,0,0-1.076-4.452l-.7.036a1.425,1.425,0,0,0,.079-.511,2.7,2.7,0,0,0-1.15-1.85c-2.336-2.045-6.01-2.5-7.483-5.265-.615-1.15-.719-2.52-1.215-3.726-1.423-3.44-5.509-4.708-7.969-7.458s-3.074-6.645-5.063-9.712a14.3,14.3,0,0,0-5.951-5.112c-.2-.1-.4-.194-.6-.281-4.116-1.815-9.005-2.229-13.27-2.218-1.656,0-5.951.051-8.053.915a2.625,2.625,0,0,0-.917.578C638.7,476.777,642.184,482.088,643.841,483.908Z" transform="translate(-430.61 -303.334)" fill="#4c4981"/><path d="M658.623,541.427a29.386,29.386,0,0,0-23.178,2.489,22.226,22.226,0,0,0-8.738,8.577c-2.951,5.521-2.822,12.176-2.613,18.479.1,3.154.238,6.42,1.587,9.252,1.562,3.277,4.508,5.526,7.513,7.366a20.629,20.629,0,0,0,6.109,2.725c3.332.746,6.794.112,10.151-.511,3.65-.7,7.567-1.533,10.1-4.335a17.952,17.952,0,0,0,3.1-5.8q1.731-4.473,3.471-8.935c2.008-5.168,2.688-9.467.035-14.5-1.205-2.3-2.678-4.442-3.868-6.753C661.7,548.3,659.57,541.728,658.623,541.427Z" transform="translate(-396.16 -336.25)" fill="#4c4981"/><path d="M137.03,686.748v15.284a80.813,80.813,0,0,0,32.1,6.543H302.864c.069.072.144.138.218.2l1.607-.2H542.58a101.284,101.284,0,0,0,53.625-15.008V670.232L481.795,656.62h-.089l-66.627,5.817-17.242,1.534-8.956.782-18.536,1.62-9.536.833-13.885,1.217-1.954.169-10.007.874-13.577,1.15-19.092,1.666-31.826,2.786-22.389,1.958-36.765,3.215-6.992.608-.754.066-.655.056-9.233.808-10.136.889-1.175.1Z" transform="translate(-82.978 -393.206)" fill="#504f60"/><path d="M463.65,549,607.03,523.77l5.559,28.978-65.725,8.112-20.237,2.612-55.668-11.3Z" transform="translate(-275.213 -256.016)" fill="#9c9ca1"/><path d="M717.109,726.585l-71.834-13.919a2.425,2.425,0,0,0-2.05.544,2.588,2.588,0,0,0-.9,1.976h0a2.536,2.536,0,0,0,2.028,2.52l70.153,13.541Z" transform="translate(-454.454 -420.58)" fill="#9c9ca1"/><path d="M640.207,644.844a18.072,18.072,0,0,1-6.516-1.6c-2.479-1.273-4.408-3.466-6.7-5.081-5.048-3.578-11.8-4.059-17.589-2s-10.617,6.456-14,11.711c-2.246,3.5-3.932,7.969-2.346,11.834A15.667,15.667,0,0,0,595.1,663l4.136,5.572a14.662,14.662,0,0,0,2.807,3.113A11.7,11.7,0,0,0,607.4,673.6c5.033.757,10.156.327,15.229.675,8.713.6,17.222,3.491,25.955,3.394a76.039,76.039,0,0,0,14.877-2.142l21.7-4.6c3.779-.8,8.048-1.963,9.828-5.5a13.076,13.076,0,0,0,1.041-5.219c.258-4.928,0-10.407-3.313-13.96-3.114-3.333-8.038-4.386-11.757-6.85-4.552-3.021-6.055-2.045-10.855.225a57.934,57.934,0,0,1-29.907,5.214Z" transform="translate(-408.713 -382.61)" fill="#f5cec0"/><path d="M661.017,638.1a125.944,125.944,0,0,0,18.591,6.313c10.691,2.428,21.878,2.045,32.486,4.82,5.6,1.472,11.172,3.844,16.93,3.364a49.426,49.426,0,0,0,7.562-1.636c14.068-3.578,30.061-2.418,41.486,6.783a52.655,52.655,0,0,1,10.007,11.246,7.7,7.7,0,0,1,1.089,6.3,7.457,7.457,0,0,1-4.02,4.881,41.944,41.944,0,0,1-14.073,3.87c-6.511.593-13.052-.358-19.528-1.309-9.61-1.406-19.226-2.817-28.811-4.4-3.441-.567-6.883-1.155-10.344-1.605-24.908-3.246-50.268.7-75.241-2.009a22.416,22.416,0,0,1-7.389-1.743c-5.812-2.811-8.688-10.223-7.488-16.736S628.1,644.319,633.679,641c4.671-2.8,9.709-3.926,14.911-5.112C653.42,634.724,656.365,636.258,661.017,638.1Z" transform="translate(-516.684 -382.872)" fill="#f5cec0"/><path d="M860.776,543.593c-2.747,3.711-3.332,8.69-3.035,13.336s1.369,9.242,1.527,13.909c.218,6.4-1.279,12.779-1.027,19.159a56.634,56.634,0,0,0,2.42,13.122c1.433,5.055,3.506,10.489,8.033,12.917,6.01,3.225,18.616,1.411,24.938,3.936-.575-3.7-6.089-9.048-6.665-12.743a24.514,24.514,0,0,1-.372-7.744,17.279,17.279,0,0,1,4.612-8.577,24.164,24.164,0,0,1,13.126-7.668c5.033-.941,17.356-.169,21.383,3.108.5-3.384-8.728-6.645-11.971-7.376-1.617-.373-3.471-.164-4.766-1.222-2.479-2-.679-6-.8-9.2-.094-2.556-1.542-4.9-1.835-7.453-.5-4.089,2.093-8.255,1.076-12.268a32.338,32.338,0,0,0-1.8-4.2c-1.765-4.319-.992-9.247-.05-13.837.585-2.883,1.155-6.134-.4-8.593-1.443-2.3-5.539,5.878-8.162,5.5-8.663-1.252-16.5-7.872-23.5-2.454-3.565,2.76-4.031,5.623-5.455,9.564C866.677,538.563,863.092,540.485,860.776,543.593Z" transform="translate(-769.865 -327.298)" opacity="0.1"/><path d="M863.776,540.288c-2.747,3.711-3.332,8.69-3.035,13.336s1.369,9.242,1.527,13.909c.218,6.4-1.279,12.779-1.026,19.159a56.629,56.629,0,0,0,2.42,13.122c1.433,5.055,3.506,10.489,8.033,12.917,6.01,3.225,18.616,1.411,24.938,3.936-.575-3.7-6.089-9.048-6.665-12.743a24.519,24.519,0,0,1-.372-7.744,17.279,17.279,0,0,1,4.612-8.577,24.165,24.165,0,0,1,13.126-7.667c5.033-.941,17.356-.169,21.383,3.108.5-3.384-8.728-6.645-11.971-7.376-1.617-.373-3.471-.164-4.766-1.222-2.479-2-.679-6-.8-9.2-.094-2.556-1.542-4.9-1.835-7.453-.5-4.089,2.093-8.255,1.076-12.268a32.334,32.334,0,0,0-1.8-4.2c-1.765-4.319-.992-9.247-.05-13.837.585-2.883,1.155-6.134-.4-8.593-1.443-2.3-4.265-3.164-6.888-3.547a33.174,33.174,0,0,0-24.794,6.594c-3.565,2.76-4.031,5.623-5.455,9.564C869.677,535.258,866.092,537.18,863.776,540.288Z" transform="translate(-774.353 -323.993)" fill="#4c4981"/><path d="M490.1,500.564,463.14,603.278a6.28,6.28,0,0,1-5.41,4.708L336.377,620a6.126,6.126,0,0,1-5.3-2.189,6.556,6.556,0,0,1-1.333-5.724l29.525-123.9a6.242,6.242,0,0,1,6.506-4.861l118.809,9.16a6.18,6.18,0,0,1,4.6,2.7,6.573,6.573,0,0,1,.918,5.374Z" transform="translate(-72.565 -308.488)" fill="#9c9ca1"/><ellipse cx="13.339" cy="13.929" rx="13.339" ry="13.929" transform="translate(163.637 184.26)" fill="#fff"/><path d="M828.416,479.1s-2.812,8.618,5.484,12.242l1.061,1.912-5.2,5.286s-6.407-12.048-5.713-16.327C824.052,482.213,825.044,477.868,828.416,479.1Z" transform="translate(-662.394 -306.32)" fill="#fff"/><ellipse cx="12.863" cy="13.26" rx="12.863" ry="13.26" transform="translate(162.581 185.599)" fill="#00dffc"/><path d="M813.681,463.737l2.043-3.476,2.975-.435c-.635-11.445,2.246-14.855,2.246-14.855l.669-.066,2.916-.291,5.484-5.868V437.08c-7.706.946-11.966,4.718-14.267,9.14C811.682,453.979,813.681,463.737,813.681,463.737Z" transform="translate(-652.087 -285.887)" fill="#00dffc"/><path d="M813.241,444.394V446.5l2.916-.291,5.484-5.868S813.156,442.3,813.241,444.394Z" transform="translate(-643.737 -287.481)" stroke="#4c4981" stroke-miterlimit="10" stroke-width="1" opacity="0.1"/><path d="M842.5,472.5l2.043-3.476V455C840.506,462.739,842.5,472.5,842.5,472.5Z" transform="translate(-680.91 -294.647)" stroke="#4c4981" stroke-miterlimit="10" stroke-width="1" opacity="0.1"/><path d="M7.9,27c3.982.053,7.133-5.883,7.037-13.258S11.53.347,7.548.294.415,6.177.511,13.552,3.914,26.949,7.9,27Z" transform="translate(205.601 208.34) rotate(-150)" fill="#fff"/><path d="M738.691,506.01c-3.605,6.436-8.028,10.734-4.607,12.779s13.389,1.022,16.994-5.418.332-15.335-3.089-17.38S742.3,499.559,738.691,506.01Z" transform="translate(-534.882 -314.476)" fill="#00dffc"/><path d="M685.12,392.695c0,20.564,13.652,40.382,33.6,40.382s36.125-16.672,36.125-37.239S738.673,358.6,718.721,358.6C698.772,358.62,685.12,372.126,685.12,392.695Z" transform="translate(-513.41 -247.524)" opacity="0.1"/><ellipse cx="36.125" cy="37.239" rx="36.125" ry="37.239" transform="translate(169.186 110.074)" fill="#f5cec0"/><path d="M699.891,350.815c-4.3,1.631-6.843,6.211-10.7,8.761-5.455,3.578-12.556,2.653-18.784.884-3.471-.976-7.1-2.167-10.518-1.084a2.9,2.9,0,0,1-1.6.235c-.744-.22-1.111-1.068-1.354-1.825-4.225-12.984-2.326-27.69,4.051-39.7a25.554,25.554,0,0,1,6.337-8.245,26.143,26.143,0,0,1,7.2-3.747,70.142,70.142,0,0,1,14.321-3.645,8.634,8.634,0,0,1,2.613-.087,10.771,10.771,0,0,1,3.332,1.457,33.324,33.324,0,0,0,14.807,4.146c6.942.271,14.877-1.416,20.227,3.174,6.446,5.505,4.84,16.245,9.02,23.718,2.767,4.943,8.1,8.531,8.981,14.159a13.462,13.462,0,0,1-.312,5.147c-2.043,8.659-10.176,15.366-18.844,15.524a6.971,6.971,0,0,1-3.848-.813,8.823,8.823,0,0,1-2.028-1.988C717.113,359.955,710.617,346.747,699.891,350.815Z" transform="translate(-491.406 -220.003)" fill="#444053"/><path d="M656.907,391.293c.243.757.61,1.605,1.354,1.825a2.9,2.9,0,0,0,1.6-.235c3.417-1.084,7.066.107,10.513,1.084,6.233,1.769,13.349,2.714,18.784-.884,3.863-2.556,6.4-7.156,10.706-8.761,10.726-4.089,17.222,9.14,22.915,16.071a8.823,8.823,0,0,0,2.028,1.988,6.971,6.971,0,0,0,3.848.813c8.638-.158,16.776-6.865,18.844-15.524.114-.511.213-1.022.288-1.534a.254.254,0,0,0,.025.133,13.461,13.461,0,0,1-.312,5.147c-2.043,8.659-10.181,15.366-18.844,15.524a6.971,6.971,0,0,1-3.848-.813,8.821,8.821,0,0,1-2.028-1.988c-5.693-6.931-12.189-20.14-22.915-16.071-4.3,1.631-6.843,6.211-10.706,8.761-5.455,3.578-12.551,2.653-18.784.884-3.471-.976-7.1-2.167-10.513-1.084a2.9,2.9,0,0,1-1.6.235c-.744-.22-1.111-1.068-1.354-1.825a47.475,47.475,0,0,1-2.221-16.49A46.651,46.651,0,0,0,656.907,391.293Z" transform="translate(-491.38 -257.276)" opacity="0.1"/></g></svg>