<svg xmlns="http://www.w3.org/2000/svg" width="99.113" height="32.939" viewBox="0 0 99.113 32.939"><path d="M58.506,18.208c0,5.83-3.531,8.91-7.854,8.91s-7.6-3.465-7.6-8.58c0-5.368,3.3-8.888,7.854-8.888S58.506,13.192,58.506,18.208Zm-13.123.286c0,3.608,1.958,6.842,5.4,6.842s5.412-3.2,5.412-7.029c0-3.3-1.749-6.875-5.39-6.875S45.382,14.776,45.382,18.494Z" transform="translate(1.992 0.965)" fill="#00dffc"/><path d="M57.4,26.818V9.91h2.387L65.2,18.468a48.1,48.1,0,0,1,3.036,5.5h0c-.2-2.266-.253-4.323-.253-6.952V9.91h2.057V26.818h-2.2l-5.368-8.58a53.384,53.384,0,0,1-3.157-5.643h-.077c.121,2.134.176,4.169.176,6.974V26.8Z" transform="translate(3.427 0.991)" fill="#00dffc"/><path d="M69.08,25.542l9.383-13.728v-.077h-8.58V9.91H81.3v1.32L71.962,24.915v.077h9.46v1.826H69.08Z" transform="translate(4.596 0.991)" fill="#00dffc"/><path d="M82.65,9.91V26.818h-2.2V9.91Z" transform="translate(5.733 0.991)" fill="#f4f4f4"/><path d="M83.631,10.122a25.191,25.191,0,0,1,4.191-.33A6.952,6.952,0,0,1,92.563,11.2a4.532,4.532,0,0,1,1.485,3.542,4.95,4.95,0,0,1-1.309,3.608,7,7,0,0,1-5.17,1.859,7.084,7.084,0,0,1-1.749-.154v6.776h-2.2Zm2.2,8.151a6.985,6.985,0,0,0,1.8.176c2.629,0,4.235-1.276,4.235-3.608s-1.573-3.3-3.982-3.3a8.569,8.569,0,0,0-2.057.176Z" transform="translate(5.058 0.978)" fill="#00dffc"/><g transform="translate(71.033 29.074)"><path d="M68.477,27.15l.231.858a2.946,2.946,0,0,0,.121.539h0a2.034,2.034,0,0,1,.154-.528l.275-.869h.264l.253.847a4.744,4.744,0,0,1,.154.55h0a2.33,2.33,0,0,1,.132-.55l.242-.847h.308l-.55,1.694h-.286l-.231-.759a4.51,4.51,0,0,1-.154-.55h0a3.3,3.3,0,0,1-.154.561l-.264.8h-.286l-.506-1.694Z" transform="translate(-68.18 -26.358)" fill="#343838"/><path d="M70.842,28.086a.55.55,0,0,0,.583.594,1.1,1.1,0,0,0,.462-.088v.22a1.452,1.452,0,0,1-.561.1.781.781,0,0,1-.836-.858.825.825,0,0,1,.792-.913.726.726,0,0,1,.7.8.5.5,0,0,1,0,.143Zm.9-.22c0-.2-.077-.506-.429-.506a.517.517,0,0,0-.473.506Z" transform="translate(-67.949 -26.359)" fill="#343838"/><path d="M72.23,28.916V26.43h.3v1.1h0a.627.627,0,0,1,.583-.319c.418,0,.715.352.715.869a.814.814,0,0,1-.77.913.605.605,0,0,1-.561-.319h0v.275Zm.319-.682a.33.33,0,0,0,0,.11.462.462,0,0,0,.462.363c.319,0,.517-.264.517-.649s-.176-.627-.506-.627a.5.5,0,0,0-.473.374.407.407,0,0,0,0,.132Z" transform="translate(-67.775 -26.43)" fill="#343838"/><path d="M76.215,26.43v2.486H75.94v-.3h0a.627.627,0,0,1-.583.341.781.781,0,0,1-.726-.869.825.825,0,0,1,.759-.913.561.561,0,0,1,.517.264h0V26.43Zm-.308,1.485a.473.473,0,0,0,0-.132.451.451,0,0,0-.44-.363c-.319,0-.506.286-.506.66s.165.627.5.627a.451.451,0,0,0,.451-.374.407.407,0,0,0,0-.132Z" transform="translate(-67.535 -26.43)" fill="#343838"/><path d="M76.711,28.086a.55.55,0,0,0,.583.594,1.2,1.2,0,0,0,.473-.088v.22a1.507,1.507,0,0,1-.561.1.781.781,0,0,1-.836-.858.825.825,0,0,1,.792-.913.726.726,0,0,1,.7.8v.143Zm.913-.22a.451.451,0,0,0-.429-.506.506.506,0,0,0-.473.506Z" transform="translate(-67.361 -26.359)" fill="#343838"/><path d="M78.1,28.529a.715.715,0,0,0,.407.132c.22,0,.33-.121.33-.253s-.088-.231-.319-.319-.451-.275-.451-.484a.528.528,0,0,1,.583-.5.825.825,0,0,1,.418.11l-.077.22a.627.627,0,0,0-.341-.1c-.187,0-.286.11-.286.231s.1.209.319.3.451.253.451.506-.231.506-.638.506a1.1,1.1,0,0,1-.484-.11Z" transform="translate(-67.197 -26.362)" fill="#343838"/><path d="M79.735,26.727a.193.193,0,1,1-.385,0,.176.176,0,0,1,.187-.187.187.187,0,0,1,.2.187Zm-.352,2.2V27.211H79.7v1.694Z" transform="translate(-67.063 -26.419)" fill="#343838"/><path d="M81.6,27.154v1.452a.968.968,0,0,1-.242.77.924.924,0,0,1-.627.209,1.1,1.1,0,0,1-.561-.143l.077-.231a.979.979,0,0,0,.5.132c.319,0,.55-.165.55-.594v-.187h0a.638.638,0,0,1-.55.286.759.759,0,0,1-.715-.836.814.814,0,0,1,.759-.9.55.55,0,0,1,.528.3h0v-.253Zm-.319.671a.3.3,0,0,0,0-.143.451.451,0,0,0-.429-.33c-.3,0-.506.253-.506.649s.165.605.506.605a.451.451,0,0,0,.429-.319.748.748,0,0,0,0-.165Z" transform="translate(-66.995 -26.362)" fill="#343838"/><path d="M81.89,27.605v-.451h.275v.275h0a.627.627,0,0,1,.561-.319c.231,0,.594.143.594.726v1.012h-.308v-.979c0-.275-.1-.5-.385-.5a.44.44,0,0,0-.418.308.648.648,0,0,0,0,.143v1.023H81.9Z" transform="translate(-66.809 -26.362)" fill="#343838"/><path d="M83.842,28.086a.55.55,0,0,0,.583.594,1.243,1.243,0,0,0,.473-.088v.22a1.518,1.518,0,0,1-.572.1.792.792,0,0,1-.836-.858.825.825,0,0,1,.8-.913.726.726,0,0,1,.7.8v.143Zm.9-.22a.429.429,0,0,0-.418-.506.506.506,0,0,0-.473.506Z" transform="translate(-66.649 -26.359)" fill="#343838"/><path d="M85.25,27.682v-.528h.264v.33h0a.506.506,0,0,1,.462-.374h.1v.3h-.1a.44.44,0,0,0-.418.4s0,.088,0,.143v.9H85.25Z" transform="translate(-66.472 -26.362)" fill="#343838"/></g><path d="M6.93,31.9c.814-.792.154-5.863.154-5.863A14.718,14.718,0,0,0,10,16.347a7,7,0,0,0,6.358,2.838A7.1,7.1,0,0,1,11.605,15.1c8.206,3.465,16.886-1.694,21.869.44,1.1,1.771,1.76,5.951,2.838,8.184s.077,9.284.847,7.051a31.593,31.593,0,0,0,1.1-5.676l1.1.352s2.442-7.5,1.342-9.724c1.925,2.4,3.3,1.958,3.3,1.958A8.965,8.965,0,0,1,40.1,12.441C39,8.712,32.5,3.289,22.826,4.884c3.916-2.123,6.985-2.926,9.669-2.31C27.028-.352,19.207,0,12.1,6.6A16.952,16.952,0,0,1,14.168,0S7.392,6.49,7.7,10.846c-1.991-2.31-3.6-2.31-3.6-2.31s2.827,1.947,3.135,3.641C4.246,10.043,3.707,12.1,1.023,13.6c3.454-.88,5.291.363,5.291.363s-8.206.528-5.907,6.4,3.3,6.127,3.3,6.127,1.452-.264,1.683.352S6.468,32.352,6.93,31.9Z" transform="translate(-0.001 0)" fill="#343838"/><path d="M25.756,25.208a.748.748,0,1,1-.748-.748A.748.748,0,0,1,25.756,25.208Z" transform="translate(2.426 2.447)" fill="#343838"/><path d="M36.544,21.556a2.133,2.133,0,0,1,0-.264c0-.352-.1-.418-.462-.451s-.9,0-1.353-.077c-.66-.055-1.309-.154-1.958-.209l-.8-.055-1.408-.1h-.693a8.931,8.931,0,0,0-1.716.1l-1.1.143c-.517.077-1.045.187-1.551.3l-1.925.4a10.12,10.12,0,0,1-2.2.253,9.768,9.768,0,0,1-2.2-.2l-1.9-.418c-.506-.1-1.034-.187-1.551-.253l-1.1-.121a8.8,8.8,0,0,0-1.705,0l-.7.066L10.8,20.8l-.792.077c-.66.066-1.3.176-1.947.253l-1.364.11c-.352,0-.418.11-.44.451a2.321,2.321,0,0,0,0,.275c0,.374,0,.748,0,1.1,0,.165,0,.308.22.352a1.034,1.034,0,0,1,.77.891c.088.539.209,1.1.308,1.617a10.8,10.8,0,0,0,.616,2.442,3.157,3.157,0,0,0,1.353,1.661,7.766,7.766,0,0,0,1.4.572,7.227,7.227,0,0,0,2.519.286,6.6,6.6,0,0,0,5.643-3.5,20.229,20.229,0,0,0,1.1-2.739,1.287,1.287,0,0,1,2.453,0,19.8,19.8,0,0,0,1.155,2.717,6.6,6.6,0,0,0,5.72,3.366,6.952,6.952,0,0,0,2.508-.341,7.359,7.359,0,0,0,1.386-.605,3.212,3.212,0,0,0,1.32-1.694,11.5,11.5,0,0,0,.649-2.486c.088-.539.187-1.1.275-1.628a1,1,0,0,1,.748-.891c.176-.066.209-.2.209-.363Zm-29.393,1.1A.616.616,0,0,1,6.59,22.4h1.1a.638.638,0,0,1-.539.3Zm-.561-.4A.616.616,0,0,1,7.14,22a.605.605,0,0,1,.561.242Zm1.452.8v.088h0a1.749,1.749,0,0,1,.44-.957,2.706,2.706,0,0,1,1.1-.671,9.757,9.757,0,0,1,2.2-.484,13.091,13.091,0,0,1,2.563.022,9.3,9.3,0,0,1,3.762.891,1.1,1.1,0,0,1,.187.11h.066l.121.1h0l.275.209h0a1.562,1.562,0,0,1,.341.583,1.683,1.683,0,0,0-.121-.176l-.11-.176-.22-.3-.11-.088h-.055l-.11-.055-.154-.1a4.257,4.257,0,0,0-.88-.407c-.165-.066-.33-.11-.506-.165a11.8,11.8,0,0,0-3.509-.429,12.959,12.959,0,0,0-3.377.462,4.257,4.257,0,0,0-1.1.462,2.046,2.046,0,0,0-.8,1.122Zm10.868,2.783a6.941,6.941,0,0,1-.781,1.914,5.5,5.5,0,0,1-4.2,2.541,8.141,8.141,0,0,1-1.793,0,3.663,3.663,0,0,1-1.2-.275c-.154-.077-.319-.121-.473-.2s-.253-.132-.385-.2a2.761,2.761,0,0,1-1.441-1.749A11.231,11.231,0,0,1,8.273,23.6a4.543,4.543,0,0,1,.209-.847,1.54,1.54,0,0,1,.979-.924,7.546,7.546,0,0,1,2.079-.55,14.015,14.015,0,0,1,3.3-.1,9.273,9.273,0,0,1,3.036.715,2.937,2.937,0,0,1,.561.341l.22.187a2.707,2.707,0,0,1,.187.3,1.683,1.683,0,0,1,.385.935,7.315,7.315,0,0,1-.319,2.233ZM34.2,27.551a2.7,2.7,0,0,1-1.4,1.837l-.385.22-.462.2a4.026,4.026,0,0,1-1.188.308,8.14,8.14,0,0,1-1.793,0,5.5,5.5,0,0,1-4.3-2.376,7.1,7.1,0,0,1-.814-1.9,6.974,6.974,0,0,1-.33-2.2,2.024,2.024,0,0,1,.176-.671c.055-.1.121-.187.187-.286a1.628,1.628,0,0,1,.176-.3l.22-.187a2.607,2.607,0,0,1,.55-.352,8.987,8.987,0,0,1,3.058-.781,14.652,14.652,0,0,1,3.3,0,7.469,7.469,0,0,1,2.079.506,1.562,1.562,0,0,1,1.012.9,5.676,5.676,0,0,1,.231.847,11.506,11.506,0,0,1-.319,4.279Zm.517-4.708v-.088a2.09,2.09,0,0,0-.847-1.1,3.949,3.949,0,0,0-1.1-.429,12.947,12.947,0,0,0-3.377-.4,11.826,11.826,0,0,0-3.509.506l-.506.176a4.125,4.125,0,0,0-.858.418l-.165.11-.088.077h-.055l-.11.1a1.441,1.441,0,0,0-.209.3.946.946,0,0,0-.11.176.528.528,0,0,0-.11.187,1.606,1.606,0,0,1,.319-.605h0l.275-.22h0l.132-.1h.055l.187-.121a9.438,9.438,0,0,1,3.74-.979,13.079,13.079,0,0,1,2.541,0,9.185,9.185,0,0,1,2.2.418,2.761,2.761,0,0,1,1.155.66,1.793,1.793,0,0,1,.462.935Zm.858-.517a.605.605,0,0,1-.561-.165h1.1a.605.605,0,0,1-.539.209Zm-.561-.4a.616.616,0,0,1,.55-.264.627.627,0,0,1,.561.253Z" transform="translate(0.625 2.04)" fill="#343838" fill-rule="evenodd"/><path d="M16.275,25.207a.737.737,0,0,1-.748.748.759.759,0,0,1-.737-.748.726.726,0,0,1,.748-.737A.737.737,0,0,1,16.275,25.207Z" transform="translate(1.479 2.448)" fill="#343838"/></svg>